<?xml version="1.0" standalone="no"?>
<!DOCTYPE svg PUBLIC "-//W3C//DTD SVG 20010904//EN"
 "http://www.w3.org/TR/2001/REC-SVG-20010904/DTD/svg10.dtd">
<svg version="1.0" xmlns="http://www.w3.org/2000/svg"
 width="70.000000pt" height="70.000000pt" viewBox="0 0 70.000000 70.000000"
 preserveAspectRatio="xMidYMid meet">
<metadata>
Created by potrace 1.11, written by Peter Selinger 2001-2013
</metadata>
<g transform="translate(0.000000,70.000000) scale(0.100000,-0.100000)"
fill="#000000" stroke="none">
<path d="M268 596 l-38 -21 0 -116 c0 -137 -6 -131 124 -123 124 6 117 -1 114
116 l-3 100 -67 27 c-36 14 -70 30 -74 34 -10 9 -13 9 -56 -17z"/>
<path d="M482 559 c2 -6 8 -10 13 -10 5 0 11 4 13 10 2 6 -4 11 -13 11 -9 0
-15 -5 -13 -11z"/>
<path d="M20 290 c-8 -5 -7 -9 4 -13 10 -4 16 -17 15 -34 -1 -15 -1 -34 0 -40
1 -16 35 -17 62 -2 16 8 19 17 14 42 -4 18 -11 36 -16 41 -10 11 -64 15 -79 6z
m65 -20 c3 -5 -1 -10 -9 -10 -9 0 -16 5 -16 10 0 6 4 10 9 10 6 0 13 -4 16
-10z m-4 -53 c-13 -13 -26 -3 -16 12 3 6 11 8 17 5 6 -4 6 -10 -1 -17z"/>
<path d="M134 284 c3 -8 6 -33 6 -55 0 -21 5 -39 10 -39 6 0 10 9 10 20 0 14
7 20 21 20 11 0 18 -4 15 -9 -9 -14 16 -29 43 -26 14 1 27 7 29 13 5 17 22 15
44 -5 10 -9 21 -13 24 -10 9 8 -35 97 -48 97 -5 0 -17 -18 -25 -40 -19 -48
-37 -47 -41 1 -4 38 -22 65 -22 32 0 -12 -8 -23 -20 -26 -15 -4 -20 0 -20 13
0 10 -7 21 -16 24 -12 5 -15 2 -10 -10z"/>
<path d="M356 290 c-14 -4 -16 -9 -8 -14 7 -4 12 -25 12 -47 0 -34 3 -39 23
-39 52 0 88 60 54 88 -17 15 -58 21 -81 12z m70 -46 c-3 -18 -26 -35 -38 -28
-9 6 -11 48 -2 57 11 11 42 -12 40 -29z"/>
<path d="M475 293 c-15 -5 -3 -95 13 -101 7 -2 12 6 12 20 l1 23 20 -24 c13
-16 23 -21 30 -14 7 7 5 14 -5 22 -12 10 -13 18 -5 33 6 11 7 24 2 28 -10 10
-54 19 -68 13z m45 -34 c0 -5 -4 -9 -10 -9 -5 0 -10 7 -10 16 0 8 5 12 10 9 6
-3 10 -10 10 -16z"/>
<path d="M584 245 c-18 -49 -13 -70 11 -39 12 16 17 17 32 6 42 -29 70 -28 41
2 -8 8 -21 28 -28 45 -17 43 -35 39 -56 -14z"/>
<path d="M43 169 c10 -6 25 -8 32 -5 11 4 13 -2 8 -24 -3 -19 -1 -30 6 -30 6
0 11 12 11 28 l0 27 263 -1 c144 -1 267 -2 273 -3 6 0 9 -12 6 -26 -3 -18 0
-25 11 -25 19 0 32 17 17 22 -6 2 -12 13 -13 26 l-1 22 -316 0 c-225 -1 -310
-4 -297 -11z"/>
<path d="M402 148 c-18 -18 -14 -38 8 -38 21 0 26 16 12 37 -6 10 -11 10 -20
1z"/>
<path d="M497 142 c-11 -10 -17 -12 -17 -4 0 19 -16 14 -17 -6 -1 -15 7 -18
53 -19 58 -1 75 10 51 34 -13 14 -16 13 -27 -6 -6 -12 -16 -19 -22 -15 -7 4
-6 9 2 14 7 4 8 10 3 13 -5 3 -17 -1 -26 -11z"/>
<path d="M17 143 c-10 -15 10 -35 29 -31 26 5 24 32 -3 36 -11 2 -23 -1 -26
-5z"/>
<path d="M120 132 c0 -17 5 -21 25 -20 17 2 25 8 25 20 0 23 -20 24 -20 1 -1
-16 -2 -16 -15 1 -15 19 -15 19 -15 -2z"/>
<path d="M180 143 c0 -5 5 -15 10 -23 9 -13 11 -13 20 0 15 22 12 30 -10 30
-11 0 -20 -3 -20 -7z"/>
<path d="M230 130 c0 -11 5 -20 10 -20 6 0 10 9 10 20 0 11 -4 20 -10 20 -5 0
-10 -9 -10 -20z"/>
<path d="M270 130 c0 -11 7 -20 15 -20 8 0 15 9 15 20 0 11 -7 20 -15 20 -8 0
-15 -9 -15 -20z"/>
<path d="M310 130 c0 -11 5 -20 10 -20 6 0 10 9 10 20 0 11 -4 20 -10 20 -5 0
-10 -9 -10 -20z"/>
<path d="M340 130 c0 -13 7 -20 20 -20 13 0 20 7 20 20 0 13 -7 20 -20 20 -13
0 -20 -7 -20 -20z"/>
<path d="M587 129 c-4 -16 -1 -20 16 -17 12 2 23 11 25 21 5 25 -34 22 -41 -4z"/>
</g>
</svg>
